<mxfile host="app.diagrams.net" modified="2023-04-02T16:32:01.100Z" agent="Mozilla/5.0 (Macintosh; Intel Mac OS X 10_15_7) AppleWebKit/537.36 (KHTML, like Gecko) Chrome/111.0.0.0 Safari/537.36" etag="9XqIcNdQUQL_3G1Qcaxc" version="21.1.2" type="onedrive">
  <diagram id="C5RBs43oDa-KdzZeNtuy" name="Page-1">
    <mxGraphModel grid="1" page="1" gridSize="10" guides="1" tooltips="1" connect="1" arrows="1" fold="1" pageScale="1" pageWidth="827" pageHeight="1169" math="0" shadow="0">
      <root>
        <mxCell id="WIyWlLk6GJQsqaUBKTNV-0" />
        <mxCell id="WIyWlLk6GJQsqaUBKTNV-1" parent="WIyWlLk6GJQsqaUBKTNV-0" />
        <mxCell id="zMpYF5B8KSEeU2nSLcIA-8" value="StorageUnit" style="swimlane;fontStyle=1;align=center;verticalAlign=top;childLayout=stackLayout;horizontal=1;startSize=26;horizontalStack=0;resizeParent=1;resizeParentMax=0;resizeLast=0;collapsible=1;marginBottom=0;whiteSpace=wrap;html=1;" vertex="1" parent="WIyWlLk6GJQsqaUBKTNV-1">
          <mxGeometry x="174" y="690" width="160" height="30" as="geometry" />
        </mxCell>
        <mxCell id="VhmcF22pDkBif8iSbu52-0" value="Branch" style="swimlane;fontStyle=1;align=center;verticalAlign=top;childLayout=stackLayout;horizontal=1;startSize=26;horizontalStack=0;resizeParent=1;resizeParentMax=0;resizeLast=0;collapsible=1;marginBottom=0;whiteSpace=wrap;html=1;" vertex="1" parent="WIyWlLk6GJQsqaUBKTNV-1">
          <mxGeometry x="314" y="480" width="180" height="60" as="geometry" />
        </mxCell>
        <mxCell id="VhmcF22pDkBif8iSbu52-1" value="+ Address : String" style="text;strokeColor=none;fillColor=none;align=left;verticalAlign=top;spacingLeft=4;spacingRight=4;overflow=hidden;rotatable=0;points=[[0,0.5],[1,0.5]];portConstraint=eastwest;whiteSpace=wrap;html=1;" vertex="1" parent="VhmcF22pDkBif8iSbu52-0">
          <mxGeometry y="26" width="180" height="34" as="geometry" />
        </mxCell>
        <mxCell id="VhmcF22pDkBif8iSbu52-8" value="IS A" style="endArrow=block;endSize=16;endFill=0;html=1;rounded=0;exitX=1.003;exitY=0.497;exitDx=0;exitDy=0;exitPerimeter=0;entryX=0.5;entryY=1;entryDx=0;entryDy=0;" edge="1" parent="WIyWlLk6GJQsqaUBKTNV-1" source="VhmcF22pDkBif8iSbu52-18" target="zMpYF5B8KSEeU2nSLcIA-8">
          <mxGeometry width="160" relative="1" as="geometry">
            <mxPoint x="254" y="830" as="sourcePoint" />
            <mxPoint x="254.0054560334636" y="750" as="targetPoint" />
          </mxGeometry>
        </mxCell>
        <mxCell id="VhmcF22pDkBif8iSbu52-9" value="StoreShelves" style="swimlane;fontStyle=1;align=center;verticalAlign=top;childLayout=stackLayout;horizontal=1;startSize=26;horizontalStack=0;resizeParent=1;resizeParentMax=0;resizeLast=0;collapsible=1;marginBottom=0;whiteSpace=wrap;html=1;" vertex="1" parent="WIyWlLk6GJQsqaUBKTNV-1">
          <mxGeometry x="54" y="830" width="160" height="30" as="geometry" />
        </mxCell>
        <mxCell id="VhmcF22pDkBif8iSbu52-13" value="BackStorage" style="swimlane;fontStyle=1;align=center;verticalAlign=top;childLayout=stackLayout;horizontal=1;startSize=26;horizontalStack=0;resizeParent=1;resizeParentMax=0;resizeLast=0;collapsible=1;marginBottom=0;whiteSpace=wrap;html=1;" vertex="1" parent="WIyWlLk6GJQsqaUBKTNV-1">
          <mxGeometry x="274" y="830" width="160" height="30" as="geometry" />
        </mxCell>
        <mxCell id="VhmcF22pDkBif8iSbu52-17" value="" style="line;strokeWidth=1;fillColor=none;align=left;verticalAlign=middle;spacingTop=-1;spacingLeft=3;spacingRight=3;rotatable=0;labelPosition=right;points=[];portConstraint=eastwest;strokeColor=inherit;" vertex="1" parent="WIyWlLk6GJQsqaUBKTNV-1">
          <mxGeometry x="254" y="830" width="20" height="8" as="geometry" />
        </mxCell>
        <mxCell id="VhmcF22pDkBif8iSbu52-18" value="" style="line;strokeWidth=1;fillColor=none;align=left;verticalAlign=middle;spacingTop=-1;spacingLeft=3;spacingRight=3;rotatable=0;labelPosition=right;points=[];portConstraint=eastwest;strokeColor=inherit;" vertex="1" parent="WIyWlLk6GJQsqaUBKTNV-1">
          <mxGeometry x="214" y="830" width="40" height="8" as="geometry" />
        </mxCell>
        <mxCell id="VhmcF22pDkBif8iSbu52-23" value="" style="endArrow=diamondThin;endFill=1;endSize=24;html=1;rounded=0;exitX=0.5;exitY=0;exitDx=0;exitDy=0;entryX=0.213;entryY=1.046;entryDx=0;entryDy=0;entryPerimeter=0;" edge="1" parent="WIyWlLk6GJQsqaUBKTNV-1" source="VhmcF22pDkBif8iSbu52-13" target="VhmcF22pDkBif8iSbu52-1">
          <mxGeometry width="160" relative="1" as="geometry">
            <mxPoint x="404" y="690" as="sourcePoint" />
            <mxPoint x="353.05999999999995" y="577" as="targetPoint" />
          </mxGeometry>
        </mxCell>
        <mxCell id="VhmcF22pDkBif8iSbu52-25" value="1" style="edgeLabel;html=1;align=center;verticalAlign=middle;resizable=0;points=[];" connectable="0" vertex="1" parent="VhmcF22pDkBif8iSbu52-23">
          <mxGeometry x="-0.8591" y="-2" relative="1" as="geometry">
            <mxPoint x="-7" y="10" as="offset" />
          </mxGeometry>
        </mxCell>
        <mxCell id="fHVGCS-6Fuo540F0FU7E-12" value="&lt;font style=&quot;font-size: 8px;&quot;&gt;Found In&lt;/font&gt;" style="edgeLabel;html=1;align=center;verticalAlign=middle;resizable=0;points=[];" connectable="0" vertex="1" parent="VhmcF22pDkBif8iSbu52-23">
          <mxGeometry x="-0.9317" y="-1" relative="1" as="geometry">
            <mxPoint x="20" y="1" as="offset" />
          </mxGeometry>
        </mxCell>
        <mxCell id="fHVGCS-6Fuo540F0FU7E-13" value="&lt;font style=&quot;font-size: 8px;&quot;&gt;Contains&lt;/font&gt;" style="edgeLabel;html=1;align=center;verticalAlign=middle;resizable=0;points=[];" connectable="0" vertex="1" parent="VhmcF22pDkBif8iSbu52-23">
          <mxGeometry x="0.761" relative="1" as="geometry">
            <mxPoint x="16" as="offset" />
          </mxGeometry>
        </mxCell>
        <mxCell id="VhmcF22pDkBif8iSbu52-24" value="" style="endArrow=diamondThin;endFill=1;endSize=24;html=1;rounded=0;exitX=0.375;exitY=-0.041;exitDx=0;exitDy=0;exitPerimeter=0;entryX=-0.017;entryY=-0.019;entryDx=0;entryDy=0;entryPerimeter=0;" edge="1" parent="WIyWlLk6GJQsqaUBKTNV-1" source="VhmcF22pDkBif8iSbu52-9" target="VhmcF22pDkBif8iSbu52-1">
          <mxGeometry width="160" relative="1" as="geometry">
            <mxPoint x="354" y="830" as="sourcePoint" />
            <mxPoint x="314" y="610" as="targetPoint" />
            <Array as="points">
              <mxPoint x="114" y="710" />
              <mxPoint x="114" y="670" />
              <mxPoint x="114" y="506" />
              <mxPoint x="244" y="506" />
            </Array>
          </mxGeometry>
        </mxCell>
        <mxCell id="VhmcF22pDkBif8iSbu52-26" value="1" style="edgeLabel;html=1;align=center;verticalAlign=middle;resizable=0;points=[];" connectable="0" vertex="1" parent="VhmcF22pDkBif8iSbu52-24">
          <mxGeometry x="-0.9375" y="-3" relative="1" as="geometry">
            <mxPoint x="1" y="9" as="offset" />
          </mxGeometry>
        </mxCell>
        <mxCell id="VhmcF22pDkBif8iSbu52-31" value="Category" style="swimlane;fontStyle=1;align=center;verticalAlign=top;childLayout=stackLayout;horizontal=1;startSize=26;horizontalStack=0;resizeParent=1;resizeParentMax=0;resizeLast=0;collapsible=1;marginBottom=0;whiteSpace=wrap;html=1;" vertex="1" parent="WIyWlLk6GJQsqaUBKTNV-1">
          <mxGeometry x="254" y="200" width="160" height="70" as="geometry" />
        </mxCell>
        <mxCell id="VhmcF22pDkBif8iSbu52-32" value="+ PrimeCategory : String&lt;br&gt;+ SubCategory : String&lt;br&gt;" style="text;strokeColor=none;fillColor=none;align=left;verticalAlign=top;spacingLeft=4;spacingRight=4;overflow=hidden;rotatable=0;points=[[0,0.5],[1,0.5]];portConstraint=eastwest;whiteSpace=wrap;html=1;" vertex="1" parent="VhmcF22pDkBif8iSbu52-31">
          <mxGeometry y="26" width="160" height="44" as="geometry" />
        </mxCell>
        <mxCell id="VhmcF22pDkBif8iSbu52-35" value="Discount" style="swimlane;fontStyle=1;align=center;verticalAlign=top;childLayout=stackLayout;horizontal=1;startSize=26;horizontalStack=0;resizeParent=1;resizeParentMax=0;resizeLast=0;collapsible=1;marginBottom=0;whiteSpace=wrap;html=1;" vertex="1" parent="WIyWlLk6GJQsqaUBKTNV-1">
          <mxGeometry x="564" y="200" width="210" height="100" as="geometry">
            <mxRectangle x="330" y="499" width="90" height="30" as="alternateBounds" />
          </mxGeometry>
        </mxCell>
        <mxCell id="VhmcF22pDkBif8iSbu52-36" value="+ ExpirationDate : DateTime&lt;br&gt;+ Value : double&lt;br&gt;+ IsPercentage : Boolean&lt;br&gt;+ MinCapacity : int" style="text;strokeColor=none;fillColor=none;align=left;verticalAlign=top;spacingLeft=4;spacingRight=4;overflow=hidden;rotatable=0;points=[[0,0.5],[1,0.5]];portConstraint=eastwest;whiteSpace=wrap;html=1;" vertex="1" parent="VhmcF22pDkBif8iSbu52-35">
          <mxGeometry y="26" width="210" height="74" as="geometry" />
        </mxCell>
        <mxCell id="VhmcF22pDkBif8iSbu52-41" value="0..1" style="edgeLabel;html=1;align=center;verticalAlign=middle;resizable=0;points=[];" connectable="0" vertex="1" parent="WIyWlLk6GJQsqaUBKTNV-1">
          <mxGeometry x="526" y="270.99545454545455" as="geometry">
            <mxPoint x="16" y="-46" as="offset" />
          </mxGeometry>
        </mxCell>
        <mxCell id="VhmcF22pDkBif8iSbu52-42" value="*" style="edgeLabel;html=1;align=center;verticalAlign=middle;resizable=0;points=[];" connectable="0" vertex="1" parent="WIyWlLk6GJQsqaUBKTNV-1">
          <mxGeometry x="403" y="270.99545454545455" as="geometry">
            <mxPoint x="16" y="-46" as="offset" />
          </mxGeometry>
        </mxCell>
        <mxCell id="VhmcF22pDkBif8iSbu52-52" value="Item" style="swimlane;fontStyle=1;align=center;verticalAlign=top;childLayout=stackLayout;horizontal=1;startSize=26;horizontalStack=0;resizeParent=1;resizeParentMax=0;resizeLast=0;collapsible=1;marginBottom=0;whiteSpace=wrap;html=1;" vertex="1" parent="WIyWlLk6GJQsqaUBKTNV-1">
          <mxGeometry x="574" y="360" width="230" height="120" as="geometry" />
        </mxCell>
        <mxCell id="VhmcF22pDkBif8iSbu52-53" value="+ BarCode : int&lt;br&gt;+ Cost_Price : double&lt;br style=&quot;border-color: var(--border-color);&quot;&gt;+ Expiration_Date : DateTime&lt;br style=&quot;border-color: var(--border-color);&quot;&gt;+ Damaged : DamagedType&lt;span style=&quot;background-color: rgb(255, 255, 255);&quot;&gt;&lt;br&gt;&lt;/span&gt;+ Place : int" style="text;strokeColor=none;fillColor=none;align=left;verticalAlign=top;spacingLeft=4;spacingRight=4;overflow=hidden;rotatable=0;points=[[0,0.5],[1,0.5]];portConstraint=eastwest;whiteSpace=wrap;html=1;" vertex="1" parent="VhmcF22pDkBif8iSbu52-52">
          <mxGeometry y="26" width="230" height="94" as="geometry" />
        </mxCell>
        <mxCell id="VhmcF22pDkBif8iSbu52-56" value="&lt;font style=&quot;font-size: 8px;&quot;&gt;Category Discount&lt;/font&gt;" style="text;html=1;align=center;verticalAlign=middle;resizable=0;points=[];autosize=1;strokeColor=none;fillColor=none;fontStyle=1" vertex="1" parent="WIyWlLk6GJQsqaUBKTNV-1">
          <mxGeometry x="444" y="210" width="90" height="30" as="geometry" />
        </mxCell>
        <mxCell id="VhmcF22pDkBif8iSbu52-67" value="" style="endArrow=none;html=1;rounded=0;entryX=0.328;entryY=1.034;entryDx=0;entryDy=0;entryPerimeter=0;" edge="1" parent="WIyWlLk6GJQsqaUBKTNV-1" target="VhmcF22pDkBif8iSbu52-36">
          <mxGeometry width="50" height="50" relative="1" as="geometry">
            <mxPoint x="633" y="360" as="sourcePoint" />
            <mxPoint x="634" y="280" as="targetPoint" />
          </mxGeometry>
        </mxCell>
        <mxCell id="fHVGCS-6Fuo540F0FU7E-23" value="&lt;font style=&quot;font-size: 8px;&quot;&gt;Exists In&lt;/font&gt;" style="edgeLabel;html=1;align=center;verticalAlign=middle;resizable=0;points=[];" connectable="0" vertex="1" parent="VhmcF22pDkBif8iSbu52-67">
          <mxGeometry x="0.0796" relative="1" as="geometry">
            <mxPoint x="18" y="-20" as="offset" />
          </mxGeometry>
        </mxCell>
        <mxCell id="VhmcF22pDkBif8iSbu52-68" value="&lt;meta charset=&quot;utf-8&quot;&gt;&lt;span style=&quot;color: rgb(0, 0, 0); font-family: Helvetica; font-size: 11px; font-style: normal; font-variant-ligatures: normal; font-variant-caps: normal; font-weight: 400; letter-spacing: normal; orphans: 2; text-align: center; text-indent: 0px; text-transform: none; widows: 2; word-spacing: 0px; -webkit-text-stroke-width: 0px; background-color: rgb(255, 255, 255); text-decoration-thickness: initial; text-decoration-style: initial; text-decoration-color: initial; float: none; display: inline !important;&quot;&gt;0..1&lt;/span&gt;" style="text;whiteSpace=wrap;html=1;" vertex="1" parent="WIyWlLk6GJQsqaUBKTNV-1">
          <mxGeometry x="609" y="296" width="28" height="30" as="geometry" />
        </mxCell>
        <mxCell id="VhmcF22pDkBif8iSbu52-70" value="&lt;span style=&quot;color: rgb(0, 0, 0); font-family: Helvetica; font-size: 11px; font-style: normal; font-variant-ligatures: normal; font-variant-caps: normal; font-weight: 400; letter-spacing: normal; orphans: 2; text-align: center; text-indent: 0px; text-transform: none; widows: 2; word-spacing: 0px; -webkit-text-stroke-width: 0px; background-color: rgb(255, 255, 255); text-decoration-thickness: initial; text-decoration-style: initial; text-decoration-color: initial; float: none; display: inline !important;&quot;&gt;*&lt;/span&gt;" style="text;whiteSpace=wrap;html=1;" vertex="1" parent="WIyWlLk6GJQsqaUBKTNV-1">
          <mxGeometry x="621" y="339" width="28" height="30" as="geometry" />
        </mxCell>
        <mxCell id="ki7JC-JaJUm7RhWlzLma-9" value="" style="endArrow=diamondThin;endFill=1;endSize=24;html=1;rounded=0;exitX=0.019;exitY=1.008;exitDx=0;exitDy=0;entryX=1;entryY=0;entryDx=0;entryDy=0;exitPerimeter=0;" edge="1" parent="WIyWlLk6GJQsqaUBKTNV-1" source="VhmcF22pDkBif8iSbu52-53" target="zMpYF5B8KSEeU2nSLcIA-8">
          <mxGeometry width="160" relative="1" as="geometry">
            <mxPoint x="621" y="753" as="sourcePoint" />
            <mxPoint x="564" y="660" as="targetPoint" />
            <Array as="points">
              <mxPoint x="578" y="640" />
              <mxPoint x="394" y="640" />
              <mxPoint x="374" y="640" />
              <mxPoint x="354" y="640" />
              <mxPoint x="334" y="640" />
            </Array>
          </mxGeometry>
        </mxCell>
        <mxCell id="ki7JC-JaJUm7RhWlzLma-10" value="*" style="edgeLabel;html=1;align=center;verticalAlign=middle;resizable=0;points=[];" connectable="0" vertex="1" parent="ki7JC-JaJUm7RhWlzLma-9">
          <mxGeometry x="-0.9375" y="-3" relative="1" as="geometry">
            <mxPoint x="-2" y="-3" as="offset" />
          </mxGeometry>
        </mxCell>
        <mxCell id="fHVGCS-6Fuo540F0FU7E-20" value="&lt;font style=&quot;font-size: 8px;&quot;&gt;Include&lt;/font&gt;" style="edgeLabel;html=1;align=center;verticalAlign=middle;resizable=0;points=[];" connectable="0" vertex="1" parent="ki7JC-JaJUm7RhWlzLma-9">
          <mxGeometry x="-0.8692" y="-1" relative="1" as="geometry">
            <mxPoint x="-259" y="150" as="offset" />
          </mxGeometry>
        </mxCell>
        <mxCell id="ki7JC-JaJUm7RhWlzLma-25" value="&lt;b&gt;Size&lt;/b&gt;" style="swimlane;fontStyle=0;childLayout=stackLayout;horizontal=1;startSize=26;fillColor=none;horizontalStack=0;resizeParent=1;resizeParentMax=0;resizeLast=0;collapsible=1;marginBottom=0;whiteSpace=wrap;html=1;" vertex="1" parent="WIyWlLk6GJQsqaUBKTNV-1">
          <mxGeometry x="24" y="200" width="130" height="70" as="geometry" />
        </mxCell>
        <mxCell id="fHVGCS-6Fuo540F0FU7E-6" value="" style="edgeStyle=orthogonalEdgeStyle;html=1;endArrow=open;elbow=vertical;startArrow=none;endFill=0;strokeColor=#545B64;rounded=0;" edge="1" parent="WIyWlLk6GJQsqaUBKTNV-1">
          <mxGeometry width="100" relative="1" as="geometry">
            <mxPoint x="414" y="226" as="sourcePoint" />
            <mxPoint x="560" y="230" as="targetPoint" />
            <Array as="points">
              <mxPoint x="414" y="230" />
            </Array>
          </mxGeometry>
        </mxCell>
        <mxCell id="fHVGCS-6Fuo540F0FU7E-7" value="" style="endArrow=diamondThin;endFill=0;endSize=24;html=1;rounded=0;entryX=0;entryY=0;entryDx=0;entryDy=0;" edge="1" parent="WIyWlLk6GJQsqaUBKTNV-1" target="VhmcF22pDkBif8iSbu52-52">
          <mxGeometry width="160" relative="1" as="geometry">
            <mxPoint x="414" y="250" as="sourcePoint" />
            <mxPoint x="438" y="400" as="targetPoint" />
            <Array as="points">
              <mxPoint x="494" y="250" />
              <mxPoint x="494" y="360" />
            </Array>
          </mxGeometry>
        </mxCell>
        <mxCell id="fHVGCS-6Fuo540F0FU7E-9" value="&lt;font style=&quot;font-size: 8px;&quot;&gt;1..*&lt;/font&gt;" style="edgeLabel;html=1;align=center;verticalAlign=middle;resizable=0;points=[];" connectable="0" vertex="1" parent="fHVGCS-6Fuo540F0FU7E-7">
          <mxGeometry x="0.9378" y="-1" relative="1" as="geometry">
            <mxPoint x="-24" y="-9" as="offset" />
          </mxGeometry>
        </mxCell>
        <mxCell id="fHVGCS-6Fuo540F0FU7E-10" value="&lt;font style=&quot;font-size: 8px;&quot;&gt;Include&lt;/font&gt;" style="edgeLabel;html=1;align=center;verticalAlign=middle;resizable=0;points=[];" connectable="0" vertex="1" parent="fHVGCS-6Fuo540F0FU7E-7">
          <mxGeometry x="-0.9544" y="-1" relative="1" as="geometry">
            <mxPoint x="8" y="-9" as="offset" />
          </mxGeometry>
        </mxCell>
        <mxCell id="fHVGCS-6Fuo540F0FU7E-11" value="&lt;font style=&quot;font-size: 8px;&quot;&gt;Belong&lt;/font&gt;" style="edgeLabel;html=1;align=center;verticalAlign=middle;resizable=0;points=[];" connectable="0" vertex="1" parent="fHVGCS-6Fuo540F0FU7E-7">
          <mxGeometry x="0.7637" y="1" relative="1" as="geometry">
            <mxPoint x="-9" y="9" as="offset" />
          </mxGeometry>
        </mxCell>
        <mxCell id="fHVGCS-6Fuo540F0FU7E-8" value="&lt;font style=&quot;font-size: 10px;&quot;&gt;1&lt;/font&gt;" style="edgeLabel;resizable=0;html=1;align=right;verticalAlign=top;" connectable="0" vertex="1" parent="WIyWlLk6GJQsqaUBKTNV-1">
          <mxGeometry x="421.99610127900087" y="243.9956097560976" as="geometry" />
        </mxCell>
        <mxCell id="fHVGCS-6Fuo540F0FU7E-14" value="&lt;font style=&quot;font-size: 8px;&quot;&gt;Contains&lt;/font&gt;" style="edgeLabel;html=1;align=center;verticalAlign=middle;resizable=0;points=[];" connectable="0" vertex="1" parent="WIyWlLk6GJQsqaUBKTNV-1">
          <mxGeometry x="269.99837687054736" y="513.003255924926" as="geometry" />
        </mxCell>
        <mxCell id="fHVGCS-6Fuo540F0FU7E-15" value="&lt;font style=&quot;font-size: 8px;&quot;&gt;Found In&lt;/font&gt;" style="edgeLabel;html=1;align=center;verticalAlign=middle;resizable=0;points=[];" connectable="0" vertex="1" parent="WIyWlLk6GJQsqaUBKTNV-1">
          <mxGeometry x="95.00327825220626" y="822.0032376707616" as="geometry" />
        </mxCell>
        <mxCell id="fHVGCS-6Fuo540F0FU7E-22" value="&lt;font style=&quot;font-size: 8px;&quot;&gt;Presented&lt;/font&gt;" style="edgeLabel;html=1;align=center;verticalAlign=middle;resizable=0;points=[];" connectable="0" vertex="1" parent="WIyWlLk6GJQsqaUBKTNV-1">
          <mxGeometry x="551.0043902439024" y="489.9999999999999" as="geometry">
            <mxPoint x="5" y="68" as="offset" />
          </mxGeometry>
        </mxCell>
        <mxCell id="fHVGCS-6Fuo540F0FU7E-24" value="&lt;font style=&quot;font-size: 8px;&quot;&gt;Contain&lt;/font&gt;" style="text;html=1;align=center;verticalAlign=middle;resizable=0;points=[];autosize=1;strokeColor=none;fillColor=none;" vertex="1" parent="WIyWlLk6GJQsqaUBKTNV-1">
          <mxGeometry x="623" y="338" width="50" height="30" as="geometry" />
        </mxCell>
        <mxCell id="fHVGCS-6Fuo540F0FU7E-26" value="Report" style="swimlane;fontStyle=1;align=center;verticalAlign=top;childLayout=stackLayout;horizontal=1;startSize=26;horizontalStack=0;resizeParent=1;resizeParentMax=0;resizeLast=0;collapsible=1;marginBottom=0;whiteSpace=wrap;html=1;" vertex="1" parent="WIyWlLk6GJQsqaUBKTNV-1">
          <mxGeometry x="174" y="386" width="169" height="31" as="geometry" />
        </mxCell>
        <mxCell id="fHVGCS-6Fuo540F0FU7E-39" value="&lt;font style=&quot;font-size: 12px;&quot;&gt;*&lt;/font&gt;" style="edgeLabel;html=1;align=center;verticalAlign=middle;resizable=0;points=[];fontSize=12;" connectable="0" vertex="1" parent="WIyWlLk6GJQsqaUBKTNV-1">
          <mxGeometry x="294.9986937523843" y="318.39679170695" as="geometry">
            <mxPoint x="267" y="89" as="offset" />
          </mxGeometry>
        </mxCell>
        <mxCell id="gcf_bAm9ByxR5E2x7JtE-4" value="&amp;lt;&amp;lt;enum&amp;gt;&amp;gt;&lt;br&gt;DamagedType" style="swimlane;fontStyle=0;childLayout=stackLayout;horizontal=1;startSize=26;fillColor=none;horizontalStack=0;resizeParent=1;resizeParentMax=0;resizeLast=0;collapsible=1;marginBottom=0;whiteSpace=wrap;html=1;" vertex="1" parent="WIyWlLk6GJQsqaUBKTNV-1">
          <mxGeometry x="502" y="20" width="120" height="110" as="geometry">
            <mxRectangle x="615" y="787" width="120" height="40" as="alternateBounds" />
          </mxGeometry>
        </mxCell>
        <mxCell id="gcf_bAm9ByxR5E2x7JtE-6" value="&lt;font style=&quot;font-size: 12px;&quot;&gt;- None&lt;br&gt;- Cover&lt;br&gt;- Physical&lt;br&gt;- Electrical&lt;br&gt;- Rotten&lt;/font&gt;" style="text;strokeColor=none;fillColor=none;align=left;verticalAlign=top;spacingLeft=4;spacingRight=4;overflow=hidden;rotatable=0;points=[[0,0.5],[1,0.5]];portConstraint=eastwest;whiteSpace=wrap;html=1;" vertex="1" parent="gcf_bAm9ByxR5E2x7JtE-4">
          <mxGeometry y="26" width="120" height="84" as="geometry" />
        </mxCell>
        <mxCell id="qU4-dRt0aVYh2P9HmvCY-0" value="&amp;lt;&amp;lt;enum&amp;gt;&amp;gt;&lt;br style=&quot;border-color: var(--border-color);&quot;&gt;ReportType" style="swimlane;fontStyle=0;childLayout=stackLayout;horizontal=1;startSize=26;fillColor=#f8cecc;horizontalStack=0;resizeParent=1;resizeParentMax=0;resizeLast=0;collapsible=1;marginBottom=0;whiteSpace=wrap;html=1;strokeColor=#b85450;" vertex="1" parent="WIyWlLk6GJQsqaUBKTNV-1">
          <mxGeometry x="654" y="20" width="140" height="100" as="geometry">
            <mxRectangle x="654" y="20" width="100" height="40" as="alternateBounds" />
          </mxGeometry>
        </mxCell>
        <mxCell id="qU4-dRt0aVYh2P9HmvCY-2" value="- Category&lt;br&gt;- Stock&lt;br&gt;- Damaged&lt;br&gt;&lt;span style=&quot;background-color: rgb(255, 255, 255);&quot;&gt;- Delivery&lt;/span&gt;" style="text;strokeColor=#b85450;fillColor=#f8cecc;align=left;verticalAlign=top;spacingLeft=4;spacingRight=4;overflow=hidden;rotatable=0;points=[[0,0.5],[1,0.5]];portConstraint=eastwest;whiteSpace=wrap;html=1;" vertex="1" parent="qU4-dRt0aVYh2P9HmvCY-0">
          <mxGeometry y="26" width="140" height="74" as="geometry" />
        </mxCell>
        <mxCell id="qU4-dRt0aVYh2P9HmvCY-7" value="&lt;font style=&quot;font-size: 8px;&quot;&gt;Report Items&lt;/font&gt;" style="text;html=1;align=center;verticalAlign=middle;resizable=0;points=[];autosize=1;strokeColor=none;fillColor=none;fontStyle=1" vertex="1" parent="WIyWlLk6GJQsqaUBKTNV-1">
          <mxGeometry x="430" y="388" width="70" height="30" as="geometry" />
        </mxCell>
        <mxCell id="qU4-dRt0aVYh2P9HmvCY-11" value="&amp;lt;&amp;lt;enum&amp;gt;&amp;gt;&lt;br style=&quot;border-color: var(--border-color);&quot;&gt;MeasureUnit" style="swimlane;fontStyle=0;childLayout=stackLayout;horizontal=1;startSize=26;fillColor=none;horizontalStack=0;resizeParent=1;resizeParentMax=0;resizeLast=0;collapsible=1;marginBottom=0;whiteSpace=wrap;html=1;" vertex="1" parent="WIyWlLk6GJQsqaUBKTNV-1">
          <mxGeometry x="304" y="20" width="140" height="100" as="geometry" />
        </mxCell>
        <mxCell id="qU4-dRt0aVYh2P9HmvCY-12" value="- Unit&lt;br&gt;- GM&lt;br&gt;- ML&lt;br&gt;- CM" style="text;strokeColor=none;fillColor=none;align=left;verticalAlign=top;spacingLeft=4;spacingRight=4;overflow=hidden;rotatable=0;points=[[0,0.5],[1,0.5]];portConstraint=eastwest;whiteSpace=wrap;html=1;" vertex="1" parent="qU4-dRt0aVYh2P9HmvCY-11">
          <mxGeometry y="26" width="140" height="74" as="geometry" />
        </mxCell>
        <mxCell id="ki7JC-JaJUm7RhWlzLma-27" value="+ Amount : double&lt;span style=&quot;&quot;&gt; &lt;br&gt;+ Type :&amp;nbsp;&lt;/span&gt;MeasureUnit" style="text;strokeColor=none;fillColor=none;align=left;verticalAlign=top;spacingLeft=4;spacingRight=4;overflow=hidden;rotatable=0;points=[[0,0.5],[1,0.5]];portConstraint=eastwest;whiteSpace=wrap;html=1;" vertex="1" parent="WIyWlLk6GJQsqaUBKTNV-1">
          <mxGeometry x="24" y="226" width="130" height="44" as="geometry" />
        </mxCell>
        <mxCell id="qU4-dRt0aVYh2P9HmvCY-15" value="" style="endArrow=diamondThin;endFill=0;endSize=24;html=1;rounded=0;entryX=1;entryY=0.5;entryDx=0;entryDy=0;" edge="1" parent="WIyWlLk6GJQsqaUBKTNV-1">
          <mxGeometry width="160" relative="1" as="geometry">
            <mxPoint x="574" y="412" as="sourcePoint" />
            <mxPoint x="343" y="412" as="targetPoint" />
          </mxGeometry>
        </mxCell>
        <mxCell id="qU4-dRt0aVYh2P9HmvCY-16" value="&lt;font style=&quot;font-size: 12px;&quot;&gt;*&lt;/font&gt;" style="edgeLabel;html=1;align=center;verticalAlign=middle;resizable=0;points=[];fontSize=12;" connectable="0" vertex="1" parent="WIyWlLk6GJQsqaUBKTNV-1">
          <mxGeometry x="101.99869375238433" y="313.99679170695003" as="geometry">
            <mxPoint x="267" y="89" as="offset" />
          </mxGeometry>
        </mxCell>
        <mxCell id="qU4-dRt0aVYh2P9HmvCY-21" value="*" style="text;html=1;align=center;verticalAlign=middle;resizable=0;points=[];autosize=1;strokeColor=none;fillColor=none;" vertex="1" parent="WIyWlLk6GJQsqaUBKTNV-1">
          <mxGeometry x="144" y="210" width="30" height="30" as="geometry" />
        </mxCell>
        <mxCell id="qU4-dRt0aVYh2P9HmvCY-25" value="" style="endArrow=diamondThin;endFill=1;endSize=24;html=1;rounded=0;" edge="1" parent="WIyWlLk6GJQsqaUBKTNV-1">
          <mxGeometry width="160" relative="1" as="geometry">
            <mxPoint x="94" y="226" as="sourcePoint" />
            <mxPoint x="254" y="226" as="targetPoint" />
          </mxGeometry>
        </mxCell>
        <mxCell id="qU4-dRt0aVYh2P9HmvCY-26" value="&lt;font style=&quot;font-size: 8px;&quot;&gt;&lt;b&gt;Category Size&lt;/b&gt;&lt;/font&gt;" style="edgeLabel;html=1;align=center;verticalAlign=middle;resizable=0;points=[];fontSize=8;" connectable="0" vertex="1" parent="qU4-dRt0aVYh2P9HmvCY-25">
          <mxGeometry x="0.302" relative="1" as="geometry">
            <mxPoint x="-3" as="offset" />
          </mxGeometry>
        </mxCell>
        <mxCell id="uNGU3R2hRm0RpNUcbInG-1" value="&lt;b&gt;Catalog Item&lt;/b&gt;" style="swimlane;fontStyle=0;childLayout=stackLayout;horizontal=1;startSize=26;fillColor=none;horizontalStack=0;resizeParent=1;resizeParentMax=0;resizeLast=0;collapsible=1;marginBottom=0;whiteSpace=wrap;html=1;" vertex="1" parent="WIyWlLk6GJQsqaUBKTNV-1">
          <mxGeometry x="495.7" y="679" width="140" height="120" as="geometry" />
        </mxCell>
        <mxCell id="uNGU3R2hRm0RpNUcbInG-2" value="+ ID : int&lt;br&gt;+ Amount : int&lt;br&gt;+ Name : String&lt;br style=&quot;border-color: var(--border-color);&quot;&gt;+ Manufacturer : String&lt;br&gt;+ Sell_Price : double&lt;br style=&quot;border-color: var(--border-color);&quot;&gt;+ MinCapaity : int" style="text;strokeColor=none;fillColor=none;align=left;verticalAlign=top;spacingLeft=4;spacingRight=4;overflow=hidden;rotatable=0;points=[[0,0.5],[1,0.5]];portConstraint=eastwest;whiteSpace=wrap;html=1;" vertex="1" parent="uNGU3R2hRm0RpNUcbInG-1">
          <mxGeometry y="26" width="140" height="94" as="geometry" />
        </mxCell>
        <mxCell id="uNGU3R2hRm0RpNUcbInG-5" value="2" style="endArrow=none;html=1;endSize=12;startArrow=diamondThin;startSize=14;startFill=0;edgeStyle=orthogonalEdgeStyle;align=left;verticalAlign=bottom;rounded=0;endFill=0;" edge="1" parent="WIyWlLk6GJQsqaUBKTNV-1">
          <mxGeometry x="-1" y="3" relative="1" as="geometry">
            <mxPoint x="334" y="704.6" as="sourcePoint" />
            <mxPoint x="494" y="704.6" as="targetPoint" />
          </mxGeometry>
        </mxCell>
        <mxCell id="uNGU3R2hRm0RpNUcbInG-6" value="*" style="edgeLabel;html=1;align=center;verticalAlign=middle;resizable=0;points=[];" connectable="0" vertex="1" parent="uNGU3R2hRm0RpNUcbInG-5">
          <mxGeometry x="0.7225" relative="1" as="geometry">
            <mxPoint x="17" y="-8" as="offset" />
          </mxGeometry>
        </mxCell>
      </root>
    </mxGraphModel>
  </diagram>
</mxfile>
